FFmpeg version SVN-r25716, Copyright (c) 2000-2010 the FFmpeg developers  built on Nov 10 2010 12:23:18 with gcc 4.1.2 20080704 (Red Hat 4.1.2-48)  configuration: --enable-libmp3lame --enable-shared --disable-mmx --arch=x86_64  libavutil     50.33. 0 / 50.33. 0  libavcore      0.12. 1 /  0.12. 1  libavcodec    52.94. 4 / 52.94. 4  libavformat   52.84. 0 / 52.84. 0  libavdevice   52. 2. 2 / 52. 2. 2  libavfilter    1.59. 0 /  1.59. 0  libswscale     0.12. 0 /  0.12. 0Input #0, avi, from '/RAID10/data/converted_video_files/47515.avi':  Duration: 00:00:09.35, start: 0.000000, bitrate: 188739 kb/s    Stream #0.0: Video: msvideo1, rgb555le, 1024x1024, 20 tbr, 20 tbn, 20 tbc[buffer @ 0x107c22f0] w:1024 h:1024 pixfmt:rgb555le[ffsink @ 0x107dfb60] auto-inserting filter 'auto-inserted scaler 0' between the filter 'src' and the filter 'out'[scale @ 0x107dfe80] w:1024 h:1024 fmt:rgb555le -> w:1024 h:1024 fmt:yuv420p flags:0x4Output #0, flv, to '/RAID10/data/converted_video_files/47515.flv':  Metadata:    encoder         : Lavf52.84.0    Stream #0.0: Video: flv, yuv420p, 1024x1024, q=2-31, 600 kb/s, 1k tbn, 24 tbcStream mapping:  Stream #0.0 -> #0.0Press [q] to stop encodingframe=    4 fps=  0 q=3.2 size=     991kB time=0.21 bitrate=38827.2kbits/s    frame=   10 fps=  9 q=19.4 size=    1158kB time=0.50 bitrate=18965.1kbits/s    frame=   20 fps= 12 q=31.0 size=    1196kB time=1.00 bitrate=9806.2kbits/s    frame=   29 fps= 13 q=31.0 size=    1230kB time=1.46 bitrate=6909.6kbits/s    frame=   39 fps= 14 q=31.0 size=    1266kB time=1.96 bitrate=5294.4kbits/s    frame=   48 fps= 15 q=31.0 size=    1274kB time=2.38 bitrate=4393.4kbits/s    frame=   59 fps= 16 q=31.0 size=    1309kB time=2.96 bitrate=3624.0kbits/s    frame=   65 fps= 15 q=31.0 size=    1340kB time=3.25 bitrate=3378.9kbits/s    frame=   70 fps= 15 q=31.0 size=    1344kB time=3.50 bitrate=3146.4kbits/s    frame=   78 fps= 15 q=31.0 size=    1379kB time=3.88 bitrate=2914.7kbits/s    frame=   86 fps= 15 q=31.0 size=    1413kB time=4.29 bitrate=2697.1kbits/s    frame=   96 fps= 15 q=31.0 size=    1424kB time=4.79 bitrate=2433.7kbits/s    frame=  106 fps= 15 q=31.0 size=    1460kB time=5.29 bitrate=2260.5kbits/s    frame=  116 fps= 16 q=31.0 size=    1495kB time=5.79 bitrate=2115.0kbits/s    frame=  125 fps= 16 q=31.0 size=    1531kB time=6.25 bitrate=2007.2kbits/s    frame=  135 fps= 16 q=31.0 size=    1567kB time=6.75 bitrate=1902.3kbits/s    frame=  144 fps= 16 q=31.0 size=    1575kB time=7.21 bitrate=1790.3kbits/s    frame=  150 fps= 16 q=31.0 size=    1606kB time=7.50 bitrate=1754.4kbits/s    frame=  160 fps= 16 q=31.0 size=    1640kB time=8.00 bitrate=1679.8kbits/s    frame=  169 fps= 16 q=24.8 size=    1674kB time=8.46 bitrate=1621.6kbits/s    frame=  178 fps= 16 q=31.0 size=    1684kB time=8.88 bitrate=1554.2kbits/s    frame=  184 fps= 16 q=31.0 size=    1715kB time=9.21 bitrate=1525.5kbits/s    frame=  187 fps= 16 q=31.0 Lsize=    1717kB time=9.33 bitrate=1506.9kbits/s    video:1714kB audio:0kB global headers:0kB muxing overhead 0.182448%